<svg width="20" height="19" viewBox="0 0 20 19" fill="none" xmlns="http://www.w3.org/2000/svg">
<path d="M8.0514 4.06406C8.87078 2.02135 9.28047 1 9.98498 1C10.6895 1 11.0992 2.02135 11.9186 4.06406L11.9567 4.15918C12.4196 5.31321 12.6511 5.89022 13.1228 6.24094C13.5945 6.59166 14.2137 6.64712 15.4522 6.75803L15.6761 6.77808C17.703 6.95961 18.7164 7.05037 18.9333 7.69514C19.1501 8.33992 18.3975 9.02465 16.8922 10.3941L16.3899 10.8512C15.6279 11.5444 15.2469 11.891 15.0693 12.3453C15.0362 12.4301 15.0086 12.5169 14.9869 12.6053C14.8702 13.0789 14.9817 13.5817 15.2049 14.5874L15.2743 14.9004C15.6844 16.7487 15.8894 17.6728 15.5314 18.0715C15.3976 18.2204 15.2238 18.3276 15.0306 18.3804C14.5138 18.5214 13.7799 17.9234 12.3123 16.7275C11.3486 15.9422 10.8667 15.5496 10.3135 15.4612C10.0959 15.4265 9.87411 15.4265 9.6565 15.4612C9.10326 15.5496 8.6214 15.9422 7.65768 16.7275C6.19002 17.9234 5.4562 18.5214 4.93932 18.3804C4.74618 18.3276 4.57231 18.2204 4.43854 18.0715C4.08054 17.6728 4.28558 16.7487 4.69565 14.9004L4.76511 14.5874C4.98824 13.5817 5.09981 13.0789 4.98308 12.6053C4.96131 12.5169 4.93377 12.4301 4.90065 12.3453C4.72307 11.891 4.34208 11.5444 3.58009 10.8512L3.07772 10.3941C1.57246 9.02465 0.819836 8.33992 1.03669 7.69514C1.25354 7.05037 2.26699 6.95961 4.29387 6.77808L4.51777 6.75803C5.75622 6.64712 6.37545 6.59166 6.84717 6.24094C7.31889 5.89022 7.55034 5.31321 8.01325 4.15918L8.0514 4.06406Z" stroke="#2564CF"/>
</svg>
